<svg id="svg" xmlns="http://www.w3.org/2000/svg" xmlns:xlink="http://www.w3.org/1999/xlink" width="400" height="198.88268156424584" viewBox="0, 0, 400,198.88268156424584"><g id="svgg"><path id="path0" d="M134.250 11.593 C 130.520 18.122,121.201 36.788,113.541 53.073 C 105.881 69.358,98.827 82.682,97.866 82.682 C 96.904 82.682,86.214 78.231,74.111 72.791 C 41.281 58.036,16.284 51.799,5.862 55.761 C -3.598 59.358,-1.153 62.642,9.861 61.133 C 25.403 59.002,93.855 83.959,93.855 91.755 C 93.855 100.689,61.480 150.949,48.654 161.928 C 43.245 166.557,40.876 169.972,42.412 170.921 C 50.128 175.690,69.649 151.610,95.325 105.651 L 101.844 93.984 130.181 110.683 C 166.878 132.309,172.803 138.219,176.326 156.714 C 180.266 177.396,185.778 196.571,188.216 198.078 C 195.963 202.867,194.854 182.577,185.571 149.721 C 183.313 141.732,179.300 118.921,176.651 99.030 C 165.701 16.802,149.895 -15.793,134.250 11.593 M151.725 22.905 C 160.148 48.463,174.585 123.367,171.652 126.299 C 171.244 126.707,164.886 123.043,157.522 118.156 C 150.159 113.269,135.587 104.631,125.140 98.960 C 114.693 93.290,105.871 88.457,105.535 88.221 C 104.168 87.261,143.275 8.939,145.122 8.939 C 146.222 8.939,149.193 15.223,151.725 22.905 M318.695 17.318 C 310.434 30.160,306.735 91.820,312.458 121.298 C 314.284 130.700,314.030 132.250,310.339 134.226 C 304.657 137.266,305.024 141.228,310.907 140.364 C 314.798 139.793,316.189 141.413,318.509 149.215 C 321.666 159.838,334.769 178.595,339.106 178.702 C 343.050 178.799,342.632 177.217,336.577 169.125 C 319.954 146.909,319.171 138.268,331.602 114.200 C 353.142 72.495,354.010 29.486,333.635 13.459 C 325.902 7.376,324.930 7.627,318.695 17.318 M339.548 39.668 C 344.294 56.756,341.080 75.561,328.077 106.796 C 319.049 128.482,317.684 125.463,317.475 83.350 C 317.187 25.132,329.012 1.731,339.548 39.668 M345.449 106.943 C 343.507 110.085,346.494 116.532,349.437 115.551 C 352.745 114.448,352.690 106.763,349.367 105.655 C 347.943 105.180,346.180 105.760,345.449 106.943 M187.709 118.328 C 187.709 119.703,189.354 123.337,191.364 126.405 C 193.374 129.472,195.636 137.652,196.392 144.582 C 198.034 159.647,201.905 162.073,205.663 150.395 C 212.463 129.269,219.762 124.004,222.087 138.547 C 223.719 148.751,228.983 150.499,235.707 143.069 C 240.516 137.754,243.575 139.088,243.575 146.501 C 243.575 149.501,244.581 151.955,245.810 151.955 C 247.039 151.955,248.045 149.944,248.045 147.486 C 248.045 143.991,249.534 143.017,254.880 143.017 C 258.772 143.017,261.134 143.959,260.364 145.205 C 253.861 155.726,277.037 160.122,296.047 151.973 C 308.841 146.489,307.657 141.893,294.633 146.488 C 280.974 151.308,268.156 150.826,268.156 145.494 C 268.156 142.884,270.229 140.747,273.571 139.908 C 286.816 136.583,297.812 120.861,289.203 117.558 C 282.903 115.140,281.168 116.035,270.182 127.374 C 259.089 138.823,249.839 141.976,247.237 135.196 C 245.544 130.785,238.194 130.910,234.457 135.412 C 231.856 138.546,231.204 137.934,229.097 130.384 C 225.433 117.259,203.352 121.096,203.352 134.856 C 203.352 136.178,201.089 132.823,198.324 127.401 C 193.524 117.989,187.709 113.019,187.709 118.328 M375.420 120.946 C 365.512 124.897,359.777 132.018,359.777 140.367 L 359.777 148.111 371.508 146.865 C 377.961 146.180,384.939 144.950,387.015 144.131 C 390.004 142.953,391.101 144.309,392.291 150.651 C 394.389 161.834,400.143 161.487,398.462 150.279 C 396.474 137.027,393.346 135.018,379.631 138.184 C 365.652 141.411,364.275 140.550,371.638 133.187 C 378.137 126.688,389.254 123.068,390.571 127.021 C 391.595 130.091,397.765 130.531,397.765 127.534 C 397.765 120.039,386.226 116.637,375.420 120.946 M344.585 143.188 C 344.072 158.887,344.571 163.355,346.754 162.628 C 353.427 160.403,355.114 124.655,348.603 123.433 C 345.861 122.919,345.130 126.511,344.585 143.188 " stroke="none" fill="#000000" fill-rule="evenodd"></path></g></svg>